<svg width="57" height="55" viewBox="0 0 57 55" fill="none" xmlns="http://www.w3.org/2000/svg">
<path d="M0.572754 47.1526V30.0113C0.572754 28.8295 0.994107 27.8203 1.83686 26.9838C2.67191 26.1473 3.68864 25.729 4.88707 25.729H7.0442C7.63953 25.729 8.14986 25.518 8.5751 25.0959C8.99262 24.6814 9.20138 24.1749 9.20138 23.5763V6.43511C9.20138 5.84418 8.99262 5.33767 8.5751 4.91558C8.14986 4.50114 7.63953 4.29393 7.0442 4.29393C6.44887 4.29393 5.93859 4.50114 5.5133 4.91558C5.09583 5.33767 4.88707 5.84418 4.88707 6.43511V21.4351H0.572754V4.29393C0.572754 3.11202 0.994107 2.10285 1.83686 1.26633C2.67191 0.422092 3.68864 0 4.88707 0H9.20138C10.3998 0 11.4165 0.422092 12.2515 1.26633C13.102 2.10285 13.5272 3.11202 13.5272 4.29393V25.729C13.5272 26.9109 13.102 27.9201 12.2515 28.7566C11.4165 29.5931 10.3998 30.0113 9.20138 30.0113H7.0442C6.44887 30.0113 5.93859 30.2187 5.5133 30.6329C5.09583 31.0553 4.88707 31.5618 4.88707 32.1525V42.8703H9.20138V34.2936H13.5272V47.1526H0.572754ZM22.1443 47.1526C20.9458 47.1526 19.9292 46.7343 19.0941 45.8977C18.2514 45.0611 17.83 44.0522 17.83 42.8703V25.729H22.1443V40.7292C22.1443 41.3198 22.353 41.8264 22.7705 42.2487C23.1958 42.6629 23.7061 42.8703 24.3014 42.8703C24.8968 42.8703 25.4071 42.6629 25.8323 42.2487C26.2498 41.8264 26.4586 41.3198 26.4586 40.7292V23.5763C26.4586 22.9854 26.2498 22.4826 25.8323 22.0682C25.4071 21.6461 24.8968 21.4351 24.3014 21.4351H22.1443C20.9458 21.4351 19.9292 21.0168 19.0941 20.1803C18.2514 19.3438 17.83 18.3345 17.83 17.1527V0H30.7846V12.8703H26.4586V4.29393H22.1443V15.0114C22.1443 15.6024 22.353 16.1089 22.7705 16.531C23.1958 16.9455 23.7061 17.1527 24.3014 17.1527H26.4586C27.657 17.1527 28.6737 17.5709 29.5087 18.4074C30.3591 19.244 30.7846 20.2532 30.7846 21.4351V42.8703C30.7846 44.0522 30.3591 45.0611 29.5087 45.8977C28.6737 46.7343 27.657 47.1526 26.4586 47.1526H22.1443ZM35.087 47.1526V0H39.4017V47.1526H35.087ZM43.7159 47.1526V30.0113C43.7159 28.8295 44.1373 27.8203 44.9801 26.9838C45.8147 26.1473 46.8317 25.729 48.03 25.729H50.1871C50.7827 25.729 51.293 25.518 51.718 25.0959C52.1358 24.6814 52.3442 24.1749 52.3442 23.5763V6.43511C52.3442 5.84418 52.1358 5.33767 51.718 4.91558C51.293 4.50114 50.7827 4.29393 50.1871 4.29393C49.592 4.29393 49.0818 4.50114 48.6563 4.91558C48.239 5.33767 48.03 5.84418 48.03 6.43511V21.4351H43.7159V4.29393C43.7159 3.11202 44.1373 2.10285 44.9801 1.26633C45.8147 0.422092 46.8317 0 48.03 0H52.3442C53.543 0 54.5595 0.422092 55.3947 1.26633C56.2451 2.10285 56.6701 3.11202 56.6701 4.29393V25.729C56.6701 26.9109 56.2451 27.9201 55.3947 28.7566C54.5595 29.5931 53.543 30.0113 52.3442 30.0113H50.1871C49.592 30.0113 49.0818 30.2187 48.6563 30.6329C48.239 31.0553 48.03 31.5618 48.03 32.1525V42.8703H52.3442V34.2936H56.6701V47.1526H43.7159Z" fill="black"/>
<path d="M1.46128 54.5982C1.56007 54.5982 1.65768 54.5845 1.75422 54.5577C1.85076 54.5313 1.93606 54.4923 2.01013 54.441C2.08644 54.3873 2.14702 54.3229 2.19192 54.2469C2.23906 54.1693 2.26266 54.0801 2.26266 53.9797C2.26266 53.8595 2.2312 53.7525 2.16837 53.6587C2.10554 53.5629 2.02249 53.4762 1.9192 53.3981C1.81822 53.318 1.70145 53.2435 1.56905 53.174C1.43885 53.1051 1.30416 53.0361 1.16497 52.9672C1.02807 52.8957 0.893377 52.8222 0.760929 52.7466C0.630728 52.6685 0.514011 52.5828 0.410779 52.489C0.309745 52.3958 0.227815 52.2908 0.164987 52.1752C0.102109 52.0591 0.0706943 51.9252 0.0706943 51.7741C0.0706943 51.6226 0.0987362 51.4821 0.154872 51.3528C0.213256 51.2235 0.297435 51.111 0.407409 51.0152C0.51963 50.9193 0.656573 50.8448 0.818188 50.7916C0.979803 50.7378 1.16497 50.7109 1.37373 50.7109C1.75085 50.7109 2.04828 50.79 2.26603 50.9482C2.48598 51.1044 2.64422 51.3305 2.74076 51.6266L2.39731 51.7838C2.3569 51.6616 2.30531 51.55 2.24243 51.4497C2.18185 51.3493 2.10774 51.2636 2.02024 51.1926C1.93494 51.1211 1.83615 51.0664 1.72393 51.0288C1.61171 50.9883 1.48488 50.9685 1.34344 50.9685C1.21773 50.9685 1.10776 50.9863 1.01346 51.0217C0.919172 51.0552 0.840613 51.1008 0.777785 51.1591C0.714907 51.2144 0.667811 51.2783 0.636346 51.3493C0.604932 51.4208 0.5892 51.4933 0.5892 51.5668C0.5892 51.6712 0.620665 51.7671 0.683493 51.8543C0.748619 51.9389 0.83387 52.0201 0.9394 52.0981C1.04713 52.1737 1.16834 52.2472 1.30303 52.3187C1.43773 52.3902 1.57462 52.4622 1.71381 52.5357C1.85525 52.6092 1.99327 52.6863 2.12796 52.7664C2.26266 52.8465 2.38275 52.9347 2.48823 53.0305C2.596 53.1243 2.68126 53.2278 2.74413 53.3413C2.80921 53.4529 2.8418 53.5776 2.8418 53.7155C2.8418 53.8717 2.81146 54.0187 2.75088 54.1566C2.69025 54.295 2.60045 54.4152 2.48148 54.5176C2.36252 54.6205 2.21327 54.7017 2.03367 54.762C1.85413 54.8218 1.64649 54.8522 1.41076 54.8522C1.21998 54.8522 1.04825 54.831 0.895626 54.7884C0.745249 54.7463 0.612799 54.6859 0.49833 54.6079C0.383811 54.5278 0.285074 54.4309 0.202019 54.3173C0.121211 54.2012 0.0538376 54.0699 0 53.9229L0.360262 53.7758C0.443317 54.0365 0.581386 54.2393 0.774414 54.3843C0.969691 54.5267 1.19868 54.5982 1.46128 54.5982ZM4.27279 52.8602V54.7584H3.60273V50.8012H4.27279V52.6062H6.27617V50.8012H6.94623V54.7584H6.27617V52.8602H4.27279ZM9.54555 50.7109L11.421 54.7584H10.7409L10.1314 53.4382H8.42436L7.7947 54.7584H7.45799L9.38056 50.7109H9.54555ZM8.5422 53.1811H10.0102L9.28632 51.617L8.5422 53.1811ZM11.9395 50.8012H13.2022C13.4109 50.8012 13.6062 50.827 13.788 50.8783C13.9698 50.9274 14.1281 50.9994 14.2628 51.0953C14.3975 51.1911 14.503 51.3092 14.5793 51.4497C14.6579 51.5901 14.6972 51.7503 14.6972 51.9308C14.6972 52.1113 14.659 52.2685 14.5827 52.4023C14.5086 52.5357 14.4098 52.6462 14.2864 52.7329C14.1629 52.8201 14.0226 52.8855 13.8655 52.9301C13.7106 52.9727 13.5512 52.994 13.3874 52.994C13.3178 52.994 13.2448 52.9925 13.1685 52.9905C13.0922 52.9859 13.0181 52.9803 12.9463 52.9737C12.8767 52.9672 12.8116 52.9606 12.751 52.9535C12.6926 52.9449 12.6455 52.9357 12.6096 52.9271V54.7584H11.9395V50.8012ZM12.6096 52.703C12.6837 52.7233 12.7633 52.7431 12.8486 52.7633C12.9362 52.7831 13.0248 52.7932 13.1146 52.7932C13.2583 52.7932 13.384 52.772 13.4917 52.7299C13.6017 52.6853 13.6915 52.6259 13.7611 52.5524C13.8329 52.4789 13.8868 52.3922 13.9227 52.2918C13.9586 52.1919 13.9766 52.085 13.9766 51.9709C13.9766 51.8375 13.953 51.7169 13.9059 51.6104C13.861 51.5009 13.7982 51.4086 13.7174 51.3325C13.6365 51.257 13.5411 51.1992 13.4312 51.1591C13.3234 51.1166 13.2078 51.0953 13.0843 51.0953H12.6096V52.703ZM18.0575 50.8012V51.0552H15.9564V52.4723H17.3605V52.7263H15.9564V54.5044H18.0575V54.7584H15.2864V50.8012H18.0575ZM22.5457 54.8522C22.3392 54.8522 22.1417 54.8264 21.9531 54.7752C21.7646 54.726 21.5884 54.656 21.4245 54.5648C21.2629 54.4735 21.1147 54.364 20.9801 54.2372C20.8476 54.11 20.7343 53.9685 20.64 53.8129C20.5479 53.6567 20.4761 53.4894 20.4245 53.3114C20.3728 53.133 20.347 52.9479 20.347 52.7567C20.347 52.5671 20.3728 52.3856 20.4245 52.2117C20.4761 52.0378 20.5479 51.875 20.64 51.724C20.7343 51.5724 20.8476 51.4339 20.9801 51.3092C21.1147 51.1845 21.2629 51.0785 21.4245 50.9918C21.5884 50.9026 21.7646 50.8336 21.9531 50.7845C22.1417 50.7358 22.3392 50.7109 22.5457 50.7109C22.8555 50.7109 23.1439 50.7647 23.411 50.8717C23.6782 50.9786 23.9094 51.1247 24.1047 51.3092C24.3022 51.4943 24.4571 51.7113 24.5693 51.9612C24.6838 52.2082 24.741 52.4733 24.741 52.7567C24.741 52.9479 24.7152 53.133 24.6636 53.3114C24.612 53.4894 24.539 53.6567 24.4447 53.8129C24.3527 53.9685 24.2405 54.11 24.108 54.2372C23.9756 54.364 23.8274 54.4735 23.6636 54.5648C23.502 54.656 23.3269 54.726 23.1383 54.7752C22.9498 54.8264 22.7522 54.8522 22.5457 54.8522ZM22.5457 54.655C22.7724 54.655 22.9733 54.6079 23.1484 54.5146C23.3235 54.4187 23.4705 54.2859 23.5895 54.1166C23.7107 53.9472 23.8016 53.747 23.8622 53.5152C23.9251 53.2835 23.9565 53.0305 23.9565 52.7567C23.9565 52.4845 23.9251 52.236 23.8622 52.0114C23.8016 51.7838 23.7107 51.5891 23.5895 51.4263C23.4705 51.2616 23.3235 51.1333 23.1484 51.042C22.9733 50.9508 22.7724 50.9051 22.5457 50.9051C22.3123 50.9051 22.1069 50.9508 21.9296 51.042C21.7545 51.1333 21.6074 51.2616 21.4885 51.4263C21.3695 51.5891 21.2797 51.7838 21.2191 52.0114C21.1607 52.236 21.1316 52.4845 21.1316 52.7567C21.1316 53.0305 21.1607 53.2835 21.2191 53.5152C21.2797 53.747 21.3695 53.9472 21.4885 54.1166C21.6074 54.2859 21.7545 54.4187 21.9296 54.5146C22.1069 54.6079 22.3123 54.655 22.5457 54.655ZM28.1889 50.8012V51.0552H26.2461V52.4723H27.6502V52.7263H26.2461V54.7584H25.5761V50.8012H28.1889ZM32.0374 50.7109L33.913 54.7584H33.2327L32.6233 53.4382H30.9162L30.2864 54.7584H29.9498L31.8724 50.7109H32.0374ZM31.0342 53.1811H32.5022L31.7779 51.617L31.0342 53.1811ZM36.1488 50.8012H37.4717C37.8824 50.8012 38.2349 50.8392 38.5291 50.9148C38.8233 50.9908 39.069 51.112 39.2667 51.2793C39.4929 51.4684 39.6625 51.6869 39.7749 51.9344C39.8893 52.1793 39.9465 52.449 39.9465 52.7431C39.9465 53.0214 39.8949 53.2835 39.7918 53.5284C39.6906 53.7738 39.5425 53.9873 39.3474 54.1703C39.1517 54.3528 38.9106 54.4968 38.6236 54.6013C38.336 54.7062 38.0071 54.7584 37.6367 54.7584H36.1488V50.8012ZM36.8184 54.4679H37.5259C37.7527 54.4679 37.9647 54.4309 38.1623 54.3574C38.362 54.2839 38.5347 54.1749 38.6808 54.0299C38.8289 53.8849 38.9454 53.7069 39.0307 53.495C39.116 53.281 39.1589 53.0351 39.1589 52.7567C39.1589 52.5139 39.1185 52.2908 39.0373 52.088C38.9566 51.8832 38.8442 51.7072 38.7007 51.5602C38.5572 51.4132 38.3855 51.2991 38.1858 51.219C37.9861 51.1368 37.768 51.0953 37.5325 51.0953H36.8184V54.4679ZM40.775 50.8012H42.1521C42.3922 50.8012 42.6021 50.827 42.7814 50.8783C42.9633 50.9295 43.115 51.0009 43.236 51.0922C43.3576 51.1835 43.4485 51.2925 43.5088 51.4197C43.5696 51.5465 43.5997 51.6849 43.5997 51.834C43.5997 51.9567 43.5762 52.0713 43.5292 52.1782C43.4822 52.2852 43.4148 52.3821 43.327 52.4693C43.2417 52.5539 43.1385 52.6285 43.0174 52.6929C42.8984 52.7552 42.7671 52.8034 42.6236 52.8369L44.0748 54.7584H43.2968L41.9131 52.8967H41.4452V54.7584H40.775V50.8012ZM41.4452 52.6995H41.8288C41.979 52.6995 42.1184 52.6807 42.2461 52.6427C42.3743 52.6026 42.4842 52.5458 42.5761 52.4723C42.6706 52.3988 42.7436 52.3096 42.7952 52.2051C42.8489 52.1002 42.8759 51.9835 42.8759 51.8543C42.8759 51.7361 42.8545 51.6281 42.8121 51.5298C42.7717 51.4319 42.7145 51.3472 42.6405 51.2758C42.5664 51.2048 42.4775 51.149 42.3743 51.1089C42.2711 51.0689 42.1578 51.0486 42.0341 51.0486H41.4452V52.6995ZM47.351 50.8012V51.0552H45.2496V52.4723H46.6538V52.7263H45.2496V54.5044H47.351V54.7584H44.5794V50.8012H47.351ZM49.694 50.7109L51.5696 54.7584H50.8892L50.2799 53.4382H48.5728L47.9435 54.7584H47.6064L49.529 50.7109H49.694ZM48.6908 53.1811H50.1588L49.435 51.617L48.6908 53.1811ZM52.0881 50.8012H52.7715L54.3238 53.8392H54.354L55.8761 50.8012H56.5494V54.7584H55.8761V51.5166H55.8526L54.2196 54.7584H54.0817L52.4283 51.5399H52.3813V54.7584H52.0881V50.8012Z" fill="black"/>
</svg>
