<svg width="19" height="16" viewBox="0 0 19 16" fill="none" xmlns="http://www.w3.org/2000/svg">
<path d="M6.4722 0.618398C6.03487 0.720675 5.79702 0.805906 5.4249 1.0062C4.27786 1.61134 3.39552 2.7577 3.04642 4.09157C2.90832 4.62001 2.87379 4.91405 2.87379 5.52346V6.06468L2.69349 6.11582C1.62317 6.41412 0.618071 7.4369 0.226773 8.62588C-0.0225839 9.3887 -0.0724553 10.3603 0.107849 11.1146C0.372551 12.2354 1.09377 13.2326 2.00296 13.7355C2.65129 14.0935 3.07328 14.1915 3.8482 14.1574C4.2817 14.1403 4.45433 14.1148 4.7267 14.0253C5.05662 13.9145 5.51697 13.6844 5.72029 13.5267C5.82004 13.4457 5.82387 13.4457 5.84689 13.5309C5.89293 13.6844 6.2919 14.2724 6.56811 14.5878C6.89419 14.9586 7.51566 15.4316 7.92614 15.6191C9.27651 16.2456 10.7995 16.0921 12.0041 15.21C12.288 15.0054 12.9171 14.3534 13.0667 14.1105L13.1435 13.9869L13.4082 14.0636C13.7381 14.1616 14.6242 14.2 14.9695 14.1318C16.1588 13.9017 17.1639 13.0409 17.6894 11.8007C17.9426 11.1956 18.0002 10.8845 18.004 10.1004C18.004 9.51654 17.9925 9.36739 17.9158 9.05629C17.6549 7.98664 17.0833 7.13433 16.224 6.55049L15.9938 6.39282L15.9784 5.88143C15.9401 4.78621 15.6063 3.90406 14.9427 3.13698C14.6242 2.77475 14.3173 2.51906 13.9414 2.3145C13.3928 2.01193 12.944 1.89687 12.288 1.89687C11.8084 1.89687 11.421 1.96505 11.045 2.11847L10.7957 2.22075L10.4888 1.89687C9.85194 1.22354 9.1384 0.810168 8.29059 0.618398C7.7842 0.507597 6.95557 0.503335 6.4722 0.618398ZM8.3021 1.59856C8.99646 1.80737 9.54504 2.19091 10.1166 2.85998C10.4619 3.26909 10.5041 3.30318 10.6345 3.30318C10.7189 3.30318 10.8724 3.25204 10.999 3.1796C11.4478 2.92817 11.7432 2.85572 12.311 2.85572C12.7905 2.85998 12.8519 2.8685 13.1665 2.99209C13.646 3.1796 13.8954 3.35858 14.2905 3.79752C14.5897 4.12566 14.6703 4.24499 14.8199 4.58591C15.0769 5.17401 15.123 5.45101 15.0999 6.20105C15.0769 6.9596 15.0884 7.00222 15.4375 7.17694C16.3774 7.64998 16.9989 8.56621 17.1447 9.69127C17.3135 10.957 16.669 12.2993 15.6102 12.8917C15.169 13.1389 14.8736 13.2113 14.3058 13.2113C13.8225 13.2071 13.7649 13.1985 13.4388 13.0707C12.8749 12.8491 12.7713 12.8789 12.4951 13.3306C12.0194 14.1105 11.279 14.6943 10.4504 14.9415C10.0169 15.0736 9.23431 15.0736 8.80081 14.9415C8.42486 14.8307 7.92614 14.5708 7.61157 14.3236C7.13587 13.9443 6.63332 13.2369 6.43767 12.6701C6.3341 12.3633 6.22284 12.2482 6.01185 12.2226C5.86224 12.2013 5.82387 12.2184 5.67426 12.3547C4.92619 13.0238 4.31622 13.271 3.52979 13.2198C2.30219 13.1389 1.25873 12.1885 0.932644 10.8462C0.840574 10.4711 0.840574 9.69127 0.932644 9.31199C1.2242 8.1017 2.08352 7.21956 3.19987 6.97239C3.53746 6.89994 3.59501 6.87437 3.69091 6.75079C3.79449 6.6272 3.80217 6.59737 3.77915 6.39708C3.70626 5.76211 3.7101 5.15696 3.78682 4.75211C4.08605 3.14551 5.19473 1.90113 6.63332 1.55168C7.07833 1.44088 7.86476 1.46219 8.3021 1.59856Z" fill="#333333"/>
</svg>
