<svg width="13" height="12" viewBox="0 0 13 12" fill="none" xmlns="http://www.w3.org/2000/svg">
<path d="M6.21738 1.79688L4.83137 4.6056L1.73047 5.05635L3.97392 7.24401L3.44389 10.3317L6.21738 8.87375L8.99087 10.3302L8.46084 7.24254L10.7043 5.05635L7.60339 4.6056L6.21738 1.79688Z" fill="#FFB404"/>
<path d="M12.0333 4.18153L8.30546 3.63975L6.63902 0.26135C6.59351 0.168852 6.51863 0.0939722 6.42613 0.048457C6.19415 -0.0660649 5.91225 0.02937 5.79626 0.26135L4.12982 3.63975L0.401979 4.18153C0.299203 4.19621 0.205236 4.24466 0.133292 4.31807C0.0463169 4.40747 -0.00161051 4.52773 4.13247e-05 4.65245C0.00169316 4.77716 0.0527891 4.89612 0.142102 4.98318L2.83924 7.61278L2.20203 11.3259C2.18709 11.4123 2.19664 11.5011 2.22962 11.5824C2.2626 11.6636 2.31767 11.7339 2.3886 11.7855C2.45952 11.837 2.54346 11.8676 2.6309 11.8738C2.71834 11.88 2.80577 11.8617 2.88329 11.8207L6.21764 10.0677L9.55199 11.8207C9.64302 11.8692 9.74874 11.8853 9.85004 11.8677C10.1055 11.8237 10.2773 11.5814 10.2333 11.3259L9.59604 7.61278L12.2932 4.98318C12.3666 4.91124 12.415 4.81727 12.4297 4.71449C12.4694 4.45755 12.2902 4.2197 12.0333 4.18153ZM8.46084 7.24254L8.99087 10.3302L6.21738 8.87375L3.44389 10.3317L3.97392 7.24401L1.73047 5.05635L4.83137 4.6056L6.21738 1.79688L7.60339 4.6056L10.7043 5.05635L8.46084 7.24254Z" fill="#FFB404"/>
</svg>
