<svg width="22" height="22" viewBox="0 0 22 22" fill="none" xmlns="http://www.w3.org/2000/svg">
<path d="M10.6119 1C11.7044 1 12.7522 1.42143 13.5248 2.17157C14.2973 2.92172 14.7313 3.93913 14.7313 5V7.66667C14.7313 8.72753 14.2973 9.74495 13.5248 10.4951C12.7522 11.2452 11.7044 11.6667 10.6119 11.6667C9.51938 11.6667 8.4716 11.2452 7.69906 10.4951C6.92653 9.74495 6.49252 8.72753 6.49252 7.66667V5C6.49252 3.93913 6.92653 2.92172 7.69906 2.17157C8.4716 1.42143 9.51938 1 10.6119 1V1ZM20.2238 19.6667V18.696C20.2238 14.4467 15.1625 11.6667 10.6119 11.6667C6.06136 11.6667 1 14.4467 1 18.696V19.6667C1 20.0203 1.14467 20.3594 1.40218 20.6095C1.65969 20.8595 2.00895 21 2.37313 21H18.8507C19.2149 21 19.5641 20.8595 19.8216 20.6095C20.0792 20.3594 20.2238 20.0203 20.2238 19.6667Z" stroke="black" stroke-width="2" stroke-linecap="round" stroke-linejoin="round"/>
</svg>
