<svg width="19" height="22" viewBox="0 0 19 22" fill="none" xmlns="http://www.w3.org/2000/svg">
<path d="M7.98846 0.089316C6.22645 0.497519 4.70224 2.10885 4.30462 3.99947L4.23446 4.32603L3.95378 4.3733C2.07094 4.69557 0.390798 6.54752 0.0555498 8.67017C-0.0185166 9.13853 -0.0185166 10.1096 0.0555498 10.5737C0.398594 12.7393 2.06704 14.5311 4.06683 14.8878C4.67886 14.9995 5.54426 14.9479 6.03154 14.776C6.14459 14.7331 6.17967 14.746 6.40187 14.9006C6.94373 15.2788 7.4505 15.5065 8.02744 15.6397L8.35879 15.7128L8.37828 18.6303C8.40167 21.8745 8.38607 21.7284 8.66285 21.9131C8.83437 22.0292 9.16572 22.0292 9.33335 21.9131C9.59453 21.7327 9.58673 21.8487 9.58673 18.6303V15.7256L9.67639 15.7085C9.72317 15.6956 9.8674 15.6655 9.99605 15.6354C10.495 15.528 11.1499 15.2272 11.5826 14.9006L11.8087 14.7331L12.0309 14.7975C12.8768 15.0338 13.8709 14.9952 14.709 14.6901C16.3619 14.0842 17.6366 12.417 17.9484 10.4534C18.0225 9.98502 18.0225 9.13853 17.9484 8.67447C17.7808 7.62603 17.3169 6.66783 16.588 5.86002C15.8629 5.0608 15.0014 4.55807 14.0697 4.38189C13.9099 4.35182 13.7734 4.32174 13.7695 4.31744C13.7617 4.31314 13.715 4.12408 13.6643 3.89635C13.4694 3.04557 13.0445 2.25494 12.4168 1.56314C11.6957 0.768222 10.8459 0.265488 9.8869 0.0635345C9.4308 -0.0309967 8.46014 -0.0181058 7.98846 0.089316ZM9.89859 1.43853C10.0389 1.4815 10.2845 1.57603 10.4443 1.65338C11.6762 2.22057 12.604 3.71158 12.5923 5.09517C12.5884 5.64088 12.4519 6.23814 12.218 6.74517C12.0231 7.16197 12.0933 7.55728 12.3935 7.75064C12.565 7.86236 12.8457 7.86236 13.0211 7.75064C13.2511 7.60455 13.5707 6.82252 13.7072 6.07057C13.7422 5.86432 13.7773 5.68814 13.7773 5.68385C13.7812 5.67525 13.9216 5.70963 14.0892 5.76119C15.898 6.28111 17.0791 8.28346 16.74 10.2557C16.4632 11.8713 15.4692 13.0831 14.0892 13.4913C13.7306 13.5987 12.8612 13.6631 12.8612 13.5858C12.8612 13.56 12.908 13.4655 12.9626 13.3753C13.3485 12.7522 13.6721 11.6952 13.6214 11.2354C13.5668 10.7628 13.2784 10.3159 12.8807 10.0838C12.5494 9.89478 11.8399 9.95064 11.1421 10.2213L10.8459 10.3374L10.7757 10.1182C10.5964 9.55103 10.1403 8.72603 9.8674 8.45533C9.52046 8.12017 8.9981 8.01275 8.53421 8.18463C8.12489 8.33502 7.57134 9.09986 7.26338 9.93775C7.19711 10.1225 7.13084 10.2815 7.11915 10.2944C7.11135 10.3073 6.97102 10.2686 6.81509 10.2085C5.80155 9.83463 5.15054 9.89908 4.71784 10.419C4.38259 10.8186 4.29293 11.2913 4.43716 11.8799C4.55801 12.3827 4.73343 12.8381 4.94783 13.2206C5.04919 13.4053 5.12715 13.5729 5.11546 13.5944C5.07647 13.6588 4.25005 13.5901 3.9148 13.4956C3.09617 13.2635 2.32822 12.6577 1.83314 11.8499C1.17434 10.7756 1.02621 9.35338 1.44332 8.16314C1.75518 7.26939 2.46076 6.44439 3.27549 6.019C3.81345 5.73541 4.1331 5.65806 4.7919 5.65377C5.43121 5.64947 5.6924 5.71392 6.3395 6.019C6.74492 6.20806 6.84627 6.22096 7.08017 6.10494C7.38033 5.95455 7.48948 5.52057 7.31406 5.17682C7.24389 5.03932 7.16593 4.97057 6.93593 4.84596C6.60848 4.66549 6.03154 4.44635 5.76256 4.40338C5.48189 4.35611 5.47409 4.34322 5.55206 4.07682C5.87171 2.994 6.67865 2.0358 7.63761 1.60611C8.09761 1.39986 8.49133 1.33111 9.09945 1.3483C9.45029 1.36119 9.73486 1.39127 9.89859 1.43853ZM9.2242 9.71861C9.4386 10.071 9.6491 10.5651 9.70758 10.853L9.75436 11.085L9.53995 11.3299C9.42301 11.4674 9.25148 11.7038 9.15793 11.8542C9.00979 12.1034 8.98251 12.1249 8.94742 12.0561C8.84997 11.8713 8.5498 11.4417 8.38997 11.2483L8.21455 11.0463L8.29642 10.7456C8.44455 10.2128 8.85386 9.4522 8.9942 9.4522C9.03318 9.4522 9.13454 9.56822 9.2242 9.71861ZM6.14069 11.3858C6.30832 11.4331 6.61628 11.562 6.81898 11.6694C7.12305 11.837 7.24389 11.9315 7.50118 12.2194C7.83642 12.5889 8.00795 12.894 8.15998 13.3967C8.26133 13.7276 8.36269 14.2948 8.3276 14.3335C8.31591 14.3506 8.17557 14.3163 8.01964 14.2647C6.91644 13.8952 6.03154 12.9499 5.66901 11.7553C5.61443 11.5706 5.57545 11.3901 5.58714 11.36C5.61443 11.2784 5.77816 11.287 6.14069 11.3858ZM12.4052 11.36C12.4363 11.446 12.2336 12.0561 12.066 12.3999C11.6879 13.1518 11.146 13.7061 10.4326 14.0713C10.1715 14.2045 9.67249 14.3721 9.64131 14.342C9.61402 14.312 9.78554 13.4827 9.86351 13.2635C10.2104 12.2924 10.8225 11.6952 11.7892 11.403C12.1557 11.2913 12.3779 11.2741 12.4052 11.36Z" fill="#333333"/>
</svg>
