<svg width="22" height="22" viewBox="0 0 22 22" fill="none" xmlns="http://www.w3.org/2000/svg">
<path d="M5.80596 7.15385V5.61539C5.80596 4.39131 6.3123 3.21737 7.21359 2.35182C8.11488 1.48626 9.33729 1 10.6119 1C11.8865 1 13.1089 1.48626 14.0102 2.35182C14.9115 3.21737 15.4179 4.39131 15.4179 5.61539V7.15385M1.80099 7.15385C1.58856 7.15385 1 7.15385 1 7.15385C1 7.15385 1 7.71906 1 7.92308V18.3077C1 19.7615 2.2896 21 3.80347 21H17.4204C18.9342 21 20.2238 19.8216 20.2238 18.3678V7.92308C20.2238 7.71906 20.2238 7.15385 20.2238 7.15385C20.2238 7.15385 19.6353 7.15385 19.4228 7.15385H1.80099Z" stroke="black" stroke-width="2" stroke-linecap="square" stroke-linejoin="round"/>
</svg>
