<svg width="21" height="20" viewBox="0 0 21 20" fill="none" xmlns="http://www.w3.org/2000/svg">
<path fill-rule="evenodd" clip-rule="evenodd" d="M14.6871 12.8985L20.2028 18.2783C20.3967 18.4676 20.5055 18.7242 20.5054 18.9917C20.5053 19.2592 20.3963 19.5157 20.2023 19.7048C20.0083 19.8939 19.7452 20.0001 19.4709 20C19.1967 19.9999 18.9337 19.8935 18.7398 19.7043L13.2241 14.3244C11.5752 15.5701 9.50179 16.1563 7.42556 15.9638C5.34933 15.7712 3.42627 14.8145 2.0476 13.2881C0.668934 11.7617 -0.0617851 9.78035 0.00409713 7.74712C0.0699794 5.7139 0.927514 3.78152 2.40225 2.3431C3.87699 0.904675 5.85815 0.0682562 7.9427 0.00399624C10.0273 -0.0602638 12.0586 0.652463 13.6235 1.99718C15.1884 3.3419 16.1694 5.21761 16.3668 7.24271C16.5641 9.26782 15.9632 11.2902 14.6861 12.8985H14.6871ZM8.20255 13.9994C9.83398 13.9994 11.3986 13.3673 12.5522 12.2421C13.7058 11.1169 14.3539 9.59084 14.3539 7.99957C14.3539 6.40831 13.7058 4.88222 12.5522 3.75702C11.3986 2.63183 9.83398 1.9997 8.20255 1.9997C6.57111 1.9997 5.00649 2.63183 3.85289 3.75702C2.69929 4.88222 2.05121 6.40831 2.05121 7.99957C2.05121 9.59084 2.69929 11.1169 3.85289 12.2421C5.00649 13.3673 6.57111 13.9994 8.20255 13.9994Z" fill="black"/>
</svg>
