<svg width="19" height="15" viewBox="0 0 19 15" fill="none" xmlns="http://www.w3.org/2000/svg">
<path d="M8.11543 0.792976C7.47112 0.83991 6.87259 0.902488 6.44305 0.968977C3.74965 1.39138 2.01389 2.41218 1.58788 3.82801C1.53859 3.99228 1.49634 4.18001 1.49634 4.2465C1.49634 4.32081 1.22524 5.04046 0.827387 6.03388C0.457703 6.94909 0.119707 7.78998 0.0809783 7.89949C0.0140832 8.07158 0.00352079 8.18109 0 8.61131C0 9.17452 0.0492911 9.39354 0.260539 9.76119C0.418974 10.035 0.630222 10.254 3.1159 12.6945C4.83757 14.392 5.4185 14.9395 5.52413 14.9747C5.64031 15.0138 5.67552 15.0099 5.78819 14.9434C5.90437 14.8769 5.97127 14.744 6.6367 13.2773L7.35846 11.6815H10.6328L11.3194 13.2147C11.6961 14.0556 12.0411 14.7948 12.0869 14.8535C12.189 14.9904 12.358 15.0334 12.5199 14.9552C12.6326 14.9043 16.854 10.7781 17.3857 10.2031C17.8152 9.73772 17.9737 9.35834 18.0018 8.74429C18.0089 8.537 17.9983 8.27496 17.9772 8.16545C17.956 8.05594 17.6145 7.15638 17.2167 6.16686C16.7731 5.06783 16.4949 4.32472 16.4949 4.25041C16.4949 4.18392 16.4527 3.99228 16.4034 3.82801C15.8541 2.00542 13.1326 0.847732 9.25969 0.792976C8.73861 0.785154 8.22105 0.785154 8.11543 0.792976ZM10.5272 1.72773C12.0693 1.86854 13.3051 2.20098 14.2944 2.74463C15.0373 3.15138 15.4668 3.58943 15.6535 4.12917C15.6922 4.24259 15.7203 4.34428 15.7133 4.34819C15.7063 4.3521 14.4106 5.43157 12.8298 6.74962L9.95681 9.13932H8.03445L5.16148 6.74962C3.58065 5.43157 2.285 4.3521 2.27795 4.34819C2.24627 4.3169 2.43991 3.86321 2.56666 3.67156C2.97155 3.06143 4.02779 2.4552 5.29879 2.10711C6.77753 1.69645 8.66819 1.55956 10.5272 1.72773ZM4.69322 7.46144C6.14026 8.66607 7.32677 9.66732 7.33381 9.68687C7.34086 9.71034 5.53469 13.774 5.49244 13.8248C5.46779 13.8522 1.09145 9.51479 0.978781 9.35834C0.820345 9.12758 0.742888 8.83816 0.764012 8.54091C0.781616 8.33362 0.869636 8.0794 1.39423 6.78091C1.72871 5.94784 2.01742 5.2673 2.0315 5.2673C2.0491 5.2673 3.24265 6.25291 4.69322 7.46144ZM16.597 6.78091C17.1216 8.0794 17.2096 8.33362 17.2272 8.54091C17.2484 8.83816 17.1709 9.12758 17.0125 9.35834C16.9033 9.51479 12.5235 13.8522 12.4988 13.8248C12.4566 13.774 10.6504 9.71034 10.6574 9.68687C10.6715 9.63994 15.9069 5.27513 15.9492 5.27121C15.9703 5.2673 16.2625 5.94784 16.597 6.78091ZM10.2279 10.782H7.76335L8.11543 9.99976H9.87583L10.2279 10.782Z" fill="#333333"/>
</svg>
