<svg width="19" height="16" viewBox="0 0 19 16" fill="none" xmlns="http://www.w3.org/2000/svg">
<path d="M9.81473 0.0700014C9.39605 0.128138 8.59896 0.35621 8.48222 0.454595C8.27288 0.629003 8.29301 0.942043 8.52248 1.08515C8.61909 1.14328 8.67545 1.13881 9.14646 1.0136C9.80667 0.834716 9.98381 0.803411 9.9516 0.861547C9.9355 0.888379 9.92342 1.03596 9.92342 1.19695C9.9194 1.65309 10.0683 1.908 10.6118 2.38203L10.7125 2.467L10.6319 2.63694C10.5353 2.84265 10.1609 3.15569 9.87511 3.27196C9.76239 3.32115 9.39605 3.40165 9.06192 3.45979C8.01926 3.62972 7.68513 3.72811 7.43956 3.93829C7.13763 4.1932 7.04907 4.77456 7.24633 5.22623C7.46372 5.71368 8.35742 6.75566 8.73986 6.96584C8.99348 7.10448 9.17061 7.12236 9.9677 7.08659C10.2334 7.07317 10.3059 7.09106 10.5635 7.2118C10.7406 7.29677 10.9822 7.3728 11.1835 7.39963C11.586 7.45329 11.6706 7.50248 12.053 7.89602C12.3429 8.19565 12.7696 8.53105 13.2003 8.79937C13.5707 9.03191 13.6351 9.34495 13.4298 9.90395C13.14 10.6866 12.8501 11.1338 12.2744 11.7196C11.0265 12.9807 10.7044 13.4055 10.5353 14.0361C10.5071 14.1345 10.4749 14.2418 10.4669 14.2776C10.4347 14.3849 10.2535 14.0629 10.165 13.7454C10.0603 13.3742 10.0844 13.2043 10.3099 12.5603C10.5353 11.9253 10.5877 11.6883 10.5595 11.42C10.5112 10.9728 10.2857 10.6463 9.73421 10.217C9.35982 9.93079 9.17061 9.68482 9.08205 9.38967C9.04179 9.25104 9.04179 9.15265 9.08205 8.88881C9.19074 8.19117 9.03777 7.64559 8.59091 7.15367C8.34534 6.88535 8.12393 6.71094 7.23023 6.08486C6.7874 5.77629 6.27613 5.32909 6.23588 5.22176C6.2238 5.18598 6.36067 4.98921 6.59014 4.71642C7.35502 3.82202 7.71331 2.83818 7.71331 1.62626C7.71331 1.09856 7.61669 0.436706 7.51605 0.284658C7.42346 0.137082 7.19399 0.0521135 7.03699 0.105778C6.96855 0.123666 6.79948 0.248882 6.65858 0.383042C6.33652 0.687139 6.08693 0.84366 5.49917 1.11645C5.24555 1.23272 4.92752 1.39819 4.79468 1.48316C4.46457 1.69334 3.82448 2.42228 3.65943 2.7711C3.31322 3.49556 3.32127 4.45704 3.67553 5.51244L3.81643 5.92834L3.74397 6.32634C3.70371 6.54547 3.65943 6.70647 3.64332 6.68858C3.63125 6.67069 3.59502 6.52758 3.56684 6.36659C3.45009 5.66001 3.11596 5.0071 2.73352 4.72536C2.41146 4.48835 2.15381 4.43021 1.56204 4.46599C1.15544 4.49282 1.00246 4.48388 0.805204 4.42574C0.430814 4.31841 0.261735 4.33183 0.136938 4.47493C-0.0240903 4.66276 -0.0361674 4.80139 0.0644752 5.16809C0.197323 5.65554 0.402634 6.03566 0.744819 6.41579C1.09103 6.79591 1.34867 6.97479 1.81566 7.15367C2.0894 7.25652 2.2142 7.27888 2.653 7.28783C3.25283 7.30124 3.26088 7.30571 3.44204 7.72608C3.53866 7.94968 3.56684 8.07937 3.58696 8.46844C3.62722 9.18843 3.75202 9.90395 3.9533 10.5658C4.15459 11.2411 4.2351 11.3752 4.44041 11.3752C4.6256 11.3752 4.71416 11.3171 4.77052 11.1561C4.8148 11.0398 4.80273 10.9593 4.63767 10.4272C4.42029 9.71166 4.34782 9.34048 4.28341 8.61154C4.23108 7.99441 4.27536 7.17156 4.40418 6.52759L4.47262 6.1743L4.83493 6.00883C5.03622 5.91939 5.28984 5.79418 5.39853 5.73157L5.59982 5.61529L5.92187 5.95964C6.24795 6.30398 6.5378 6.53206 7.40333 7.12683C7.93472 7.48907 8.24873 7.80658 8.3695 8.1062C8.43794 8.27614 8.44196 8.34769 8.41378 8.62049C8.34535 9.24657 8.36547 9.53725 8.50235 9.85476C8.65935 10.217 8.90089 10.5211 9.21892 10.7581C9.71811 11.1293 9.93147 11.4423 9.86706 11.7241C9.85498 11.7911 9.77044 12.0147 9.6859 12.2249C9.33567 13.0746 9.32359 13.647 9.6376 14.3625C9.77849 14.689 10.1408 15.1183 10.3501 15.2033C10.5112 15.2704 10.5112 15.2704 10.2092 15.2435C9.43228 15.172 8.64727 14.9215 7.85421 14.4833C7.18594 14.1166 6.61832 13.6426 6.03459 12.9673C5.6602 12.5335 5.56761 12.4485 5.46697 12.4485C5.21737 12.4485 5.03219 12.766 5.14491 13.0031C5.2375 13.1998 5.73266 13.7767 6.11108 14.13C7.06115 15.0155 8.12796 15.5879 9.35982 15.8786C9.81875 15.9859 9.9516 15.9993 10.7527 15.9993C11.4532 16.0038 11.7229 15.9859 12.0409 15.9188C14.3477 15.4403 16.2317 13.8706 17.2542 11.5765C18.4015 9.00508 18.2204 5.94622 16.7913 3.57159C15.6359 1.65309 13.8807 0.423291 11.8155 0.08789C11.3445 0.00739382 10.3059 -0.00155079 9.81473 0.0700014ZM11.2116 0.973347C11.5498 1.51893 12.1939 1.9393 12.6931 1.9393C12.9145 1.9393 13.2406 1.80067 13.4419 1.62179L13.6029 1.47421L13.8887 1.64862C14.3799 1.94377 14.3839 1.94825 14.4161 2.26129C14.5167 3.23171 15.0683 3.86227 15.8372 3.88463C16.1069 3.8891 16.1472 3.90252 16.2116 4.0009C16.284 4.1127 16.28 4.11717 16.1391 4.30947C15.7446 4.86847 15.6721 5.34697 15.8573 6.25479C15.9861 6.8764 16.0022 7.03292 16.0425 7.90944C16.0747 8.69204 16.115 8.83514 16.3283 8.97825C16.4974 9.08557 16.8033 9.07216 17.0288 8.938C17.1335 8.87539 17.2341 8.8262 17.2502 8.8262C17.3428 8.8262 17.065 10.132 16.8517 10.7044C16.4893 11.6749 16.0666 12.377 15.3823 13.1462C14.2269 14.4341 12.7173 15.1809 11.1352 15.2525L10.6319 15.2748L10.7728 15.1899C10.9379 15.0915 11.0627 14.8589 11.1352 14.5191C11.1633 14.3804 11.2157 14.1837 11.2559 14.0853C11.3807 13.7544 11.8034 13.2311 12.4516 12.5916C13.2929 11.7643 13.623 11.2992 13.9491 10.5032C14.4161 9.35837 14.3235 8.67862 13.6311 8.20012C12.987 7.75292 12.7495 7.56509 12.4153 7.22522C12.2221 7.02845 11.9967 6.83615 11.9161 6.79143C11.8397 6.75119 11.5981 6.68858 11.3848 6.65727C11.1271 6.6215 10.9057 6.55442 10.7326 6.46498C10.3823 6.29057 10.2294 6.26821 9.70201 6.33082C9.27126 6.38001 9.25113 6.38001 9.06595 6.28162C8.94115 6.21454 8.73584 6.00883 8.44599 5.66449C7.97095 5.10101 7.83408 4.88636 7.83408 4.703C7.83408 4.47493 8.03134 4.40338 9.23905 4.19767C10.0039 4.06798 10.2012 4.0009 10.5877 3.72811C11.3646 3.18252 11.6062 2.33731 11.1231 1.85433C11.0546 1.78278 10.9097 1.63968 10.805 1.53682C10.5957 1.33111 10.5756 1.25061 10.6601 0.950987C10.7044 0.781051 10.7084 0.776579 10.8976 0.776579C11.0788 0.776579 11.0989 0.785523 11.2116 0.973347ZM7.01686 1.77831C6.98466 2.64141 6.81558 3.16463 6.34457 3.85332C6.099 4.21556 5.75279 4.58226 5.41866 4.83269C5.19322 5.00263 4.73429 5.26201 4.70611 5.23517C4.66988 5.19493 4.93557 4.61804 5.13686 4.29158C5.25361 4.10823 5.49917 3.79519 5.68436 3.59842C5.99836 3.26749 6.02251 3.22724 6.02251 3.06178C6.02251 2.84712 5.88162 2.69954 5.6763 2.69954C5.39451 2.69954 4.66988 3.54923 4.32367 4.28711C4.15861 4.63145 4.15459 4.6404 4.12641 4.51071C4.07407 4.2558 4.09018 3.70127 4.15459 3.45979C4.2351 3.15122 4.3599 2.94103 4.64572 2.61905C4.9557 2.26576 5.26971 2.04663 5.84538 1.78278C6.31639 1.56813 6.6787 1.35794 6.87194 1.18353C6.95648 1.10751 6.97258 1.10304 7.00479 1.16564C7.02491 1.20589 7.02894 1.47868 7.01686 1.77831ZM16.8517 5.35592C17.1133 6.11616 17.2582 6.83615 17.3146 7.67242L17.3428 8.06596H17.2059C17.1335 8.07043 17.0006 8.09726 16.912 8.13304C16.8235 8.16881 16.751 8.20012 16.747 8.20012C16.743 8.20012 16.7309 7.94968 16.7148 7.64112C16.6826 7.02398 16.6021 6.36659 16.5095 5.96858C16.4249 5.60635 16.433 5.32909 16.5377 5.06077C16.6141 4.85953 16.6302 4.84164 16.6745 4.91319C16.7067 4.95791 16.7832 5.15468 16.8517 5.35592ZM2.26251 5.30225C2.39133 5.37828 2.70131 5.73604 2.6691 5.76734C2.66105 5.78076 2.53626 5.7271 2.39536 5.65107C2.07733 5.48561 1.90825 5.47666 1.7754 5.62871C1.65463 5.7584 1.64255 5.99989 1.74722 6.13405C1.78345 6.17877 1.92032 6.26374 2.04915 6.32187C2.31887 6.43814 2.39938 6.52759 2.19407 6.47839C1.97266 6.4292 1.59022 6.21454 1.36075 6.0133C1.18362 5.85678 0.829359 5.35145 0.829359 5.25306C0.829359 5.23965 1.12323 5.22623 1.48555 5.22623C2.02097 5.22623 2.15784 5.23965 2.26251 5.30225Z" fill="#333333"/>
<path d="M4.71403 8.75796C4.59729 8.88318 4.58923 9.02181 4.67377 9.45113C4.74221 9.81783 4.87506 9.96541 5.09245 9.92516C5.26556 9.89833 5.37828 9.7597 5.37828 9.58529C5.37828 9.30802 5.2575 8.80268 5.17296 8.72218C5.04817 8.61038 4.83078 8.6238 4.71403 8.75796Z" fill="#333333"/>
<path d="M5.10445 10.3143C4.97161 10.4753 4.99173 10.6721 5.19705 11.1238C5.57144 11.9511 6.11491 12.7203 6.71071 13.2793C6.89589 13.4537 7.09315 13.6281 7.14951 13.6683C7.38703 13.8517 7.71311 13.6818 7.71311 13.3777C7.70908 13.1943 7.6809 13.1541 7.34677 12.8634C6.98043 12.5414 6.44501 11.9064 6.2075 11.5128C6.10283 11.3339 5.92167 10.9941 5.80895 10.7571C5.70026 10.5156 5.57949 10.2964 5.54728 10.2651C5.43859 10.1712 5.20107 10.1981 5.10445 10.3143Z" fill="#333333"/>
<path d="M4.65345 11.6883C4.60112 11.7465 4.57294 11.8359 4.57294 11.9566C4.57294 12.1847 4.68163 12.3144 4.87084 12.3144C5.06407 12.3144 5.13251 12.2786 5.20095 12.1266C5.24926 12.0192 5.25328 11.9656 5.21705 11.8404C5.1929 11.7554 5.13654 11.666 5.09628 11.6436C4.96746 11.5676 4.74202 11.5899 4.65345 11.6883Z" fill="#333333"/>
</svg>
